<svg xmlns="http://www.w3.org/2000/svg" viewBox="0 0 40 40" fill="none">
  <rect width="40" height="40" rx="8" fill="#24292E"/>
  <path fill="white" fill-rule="evenodd" clip-rule="evenodd"
    d="M20 8C13.373 8 8 13.373 8 20c0 5.303 3.438 9.8 8.205 11.387.6.113.82-.258.82-.577
       0-.285-.01-1.04-.015-2.04-3.338.724-4.042-1.61-4.042-1.61-.546-1.387-1.333-1.756-1.333-1.756
       -1.09-.745.083-.73.083-.73 1.205.085 1.838 1.236 1.838 1.236 1.07 1.835 2.807 1.305
       3.492.998.108-.776.42-1.305.762-1.605-2.665-.305-5.467-1.334-5.467-5.931
       0-1.31.468-2.381 1.236-3.221-.124-.303-.535-1.524.117-3.176 0 0 1.008-.322 3.3 1.23
       .957-.266 1.983-.399 3.003-.404 1.02.005 2.047.138 3.006.404 2.29-1.552 3.297-1.23
       3.297-1.23.653 1.653.242 2.874.118 3.176.77.84 1.235 1.911 1.235 3.221
       0 4.609-2.807 5.624-5.479 5.921.43.372.823 1.102.823 2.222
       0 1.606-.015 2.896-.015 3.286 0 .322.216.694.825.577C28.565 29.797 32 25.3 32 20
       c0-6.627-5.373-12-12-12z"/>
</svg>
